<svg xmlns="http://www.w3.org/2000/svg" xmlns:xlink="http://www.w3.org/1999/xlink" version="1.1" width="256" height="256" viewBox="0 0 256 256" xml:space="preserve">

<defs>
</defs>
<g style="stroke: none; stroke-width: 0; stroke-dasharray: none; stroke-linecap: butt; stroke-linejoin: miter; stroke-miterlimit: 10; fill: none; fill-rule: nonzero; opacity: 1;" transform="translate(1.4065934065934016 1.4065934065934016) scale(2.81 2.81)" >
	<circle cx="45" cy="45" r="45" style="stroke: none; stroke-width: 1; stroke-dasharray: none; stroke-linecap: butt; stroke-linejoin: miter; stroke-miterlimit: 10; fill: rgb(32,196,203); fill-rule: nonzero; opacity: 1;" transform="  matrix(1 0 0 1 0 0) "/>
	<line x1="-15.824999999999998" y1="0" x2="15.824999999999998" y2="0" style="stroke: none; stroke-width: 1; stroke-dasharray: none; stroke-linecap: butt; stroke-linejoin: miter; stroke-miterlimit: 10; fill: rgb(27,167,173); fill-rule: nonzero; opacity: 1;" transform=" matrix(1 0 0 1 0 0) "/>
	<path d="M 58.532 76.614 h -31.65 c -1.657 0 -3 -1.343 -3 -3 s 1.343 -3 3 -3 h 31.65 c 1.657 0 3 1.343 3 3 S 60.189 76.614 58.532 76.614 z" style="stroke: none; stroke-width: 1; stroke-dasharray: none; stroke-linecap: butt; stroke-linejoin: miter; stroke-miterlimit: 10; fill: rgb(27,167,173); fill-rule: nonzero; opacity: 1;" transform=" matrix(1 0 0 1 0 0) " stroke-linecap="round" />
	<path d="M 61.709 73.438 h -31.65 c -1.657 0 -3 -1.343 -3 -3 s 1.343 -3 3 -3 h 31.65 c 1.657 0 3 1.343 3 3 S 63.366 73.438 61.709 73.438 z" style="stroke: none; stroke-width: 1; stroke-dasharray: none; stroke-linecap: butt; stroke-linejoin: miter; stroke-miterlimit: 10; fill: rgb(255,255,255); fill-rule: nonzero; opacity: 1;" transform=" matrix(1 0 0 1 0 0) " stroke-linecap="round" />
	<path d="M 42.386 63.271 c -1.657 0 -3 -1.343 -3 -3 V 24.96 l -10.881 9.256 c -1.263 1.074 -3.155 0.921 -4.229 -0.341 c -1.073 -1.262 -0.921 -3.155 0.341 -4.229 l 15.825 -13.462 c 0.891 -0.758 2.142 -0.929 3.203 -0.438 c 1.062 0.491 1.741 1.554 1.741 2.723 v 41.801 C 45.386 61.928 44.042 63.271 42.386 63.271 z" style="stroke: none; stroke-width: 1; stroke-dasharray: none; stroke-linecap: butt; stroke-linejoin: miter; stroke-miterlimit: 10; fill: rgb(27,167,173); fill-rule: nonzero; opacity: 1;" transform=" matrix(1 0 0 1 0 0) " stroke-linecap="round" />
	<path d="M 42.386 63.271 c -1.657 0 -3 -1.343 -3 -3 V 18.47 c 0 -1.169 0.68 -2.232 1.741 -2.723 c 1.061 -0.491 2.312 -0.32 3.203 0.438 l 15.825 13.462 c 1.263 1.074 1.415 2.967 0.342 4.229 c -1.075 1.263 -2.968 1.414 -4.229 0.341 L 45.386 24.96 v 35.31 C 45.386 61.928 44.042 63.271 42.386 63.271 z" style="stroke: none; stroke-width: 1; stroke-dasharray: none; stroke-linecap: butt; stroke-linejoin: miter; stroke-miterlimit: 10; fill: rgb(27,167,173); fill-rule: nonzero; opacity: 1;" transform=" matrix(1 0 0 1 0 0) " stroke-linecap="round" />
	<path d="M 45.884 60.415 c -1.657 0 -3 -1.343 -3 -3 v -35.31 l -10.881 9.256 c -1.262 1.072 -3.155 0.921 -4.229 -0.341 c -1.073 -1.262 -0.921 -3.155 0.341 -4.229 L 43.94 13.33 c 0.891 -0.758 2.14 -0.929 3.203 -0.438 c 1.062 0.491 1.741 1.554 1.741 2.723 v 41.8 C 48.884 59.072 47.541 60.415 45.884 60.415 z" style="stroke: none; stroke-width: 1; stroke-dasharray: none; stroke-linecap: butt; stroke-linejoin: miter; stroke-miterlimit: 10; fill: rgb(255,255,255); fill-rule: nonzero; opacity: 1;" transform=" matrix(1 0 0 1 0 0) " stroke-linecap="round" />
	<path d="M 45.884 60.415 c -1.657 0 -3 -1.343 -3 -3 v -41.8 c 0 -1.169 0.68 -2.232 1.741 -2.723 c 1.062 -0.489 2.312 -0.32 3.202 0.438 l 15.825 13.462 c 1.263 1.074 1.415 2.967 0.342 4.229 c -1.074 1.263 -2.968 1.414 -4.229 0.341 l -10.882 -9.256 v 35.31 C 48.884 59.072 47.541 60.415 45.884 60.415 z" style="stroke: none; stroke-width: 1; stroke-dasharray: none; stroke-linecap: butt; stroke-linejoin: miter; stroke-miterlimit: 10; fill: rgb(255,255,255); fill-rule: nonzero; opacity: 1;" transform=" matrix(1 0 0 1 0 0) " stroke-linecap="round" />
</g>
</svg>